<svg width="94" height="86" viewBox="0 0 94 86" fill="none" xmlns="http://www.w3.org/2000/svg">
<path fill-rule="evenodd" clip-rule="evenodd" d="M28.0916 29.9552C33.3456 29.9552 38.1105 31.1798 42.3897 33.6273C46.6663 36.0758 50.0334 39.4478 52.4942 43.7395C54.9532 48.0329 56.1826 52.7954 56.1826 58.028V81.6722C56.1826 82.7453 55.8109 83.6521 55.071 84.3889C54.3285 85.1273 53.3861 85.4963 52.2416 85.4963C51.0945 85.4963 50.1522 85.1429 49.4115 84.4395C48.6699 83.7344 48.3006 82.8136 48.3006 81.6722V75.6357C45.9427 78.8551 42.9449 81.3877 39.307 83.2326C35.67 85.0784 31.6607 86 27.2829 86C22.1618 86 17.5315 84.776 13.3895 82.3266C9.24573 79.879 5.97698 76.5245 3.5866 72.2652C1.19457 68.006 9.28497e-06 63.2596 0 58.028C0 52.7954 1.22788 48.0329 3.68777 43.7395C6.14588 39.4478 9.51388 36.0758 13.7922 33.6273C18.0698 31.1797 22.8367 29.9552 28.0916 29.9552ZM30.0576 35.9192C24.3997 34.8785 17.9798 35.3062 11.6664 39.4078C7.68802 42.5055 0.406944 50.1212 4.59119 65.1155C4.75405 65.696 5.63429 65.5909 5.64152 64.9884C5.18931 56.5741 6.0922 52.7088 10.0433 47.1889C12.526 43.7609 15.0583 42.601 16.0824 41.9063C24.4341 38.0851 25.4353 38.9985 30.1059 38.0462C31.2901 37.8053 31.2453 36.1382 30.0576 35.9192Z" fill="#ED5B75"/>
<path d="M48.3119 38.1834C49.9168 39.8226 51.312 41.6747 52.4965 43.7405C54.9555 48.034 56.1849 52.7965 56.1849 58.0291V81.6733C56.1849 82.7464 55.8133 83.6532 55.0734 84.39C54.3308 85.1284 53.3885 85.4974 52.2439 85.4974C51.0968 85.4974 50.1546 85.1441 49.4138 84.4406C49.2701 84.304 49.1404 84.1592 49.0246 84.0063C48.7671 83.6562 48.5708 83.259 48.4498 82.8308C48.3904 82.6141 48.3488 82.3868 48.3255 82.1487C48.3167 82.0457 48.3119 81.9414 48.3119 81.8363V38.1834Z" fill="#ED5B75"/>
<path d="M71.1452 0C83.7764 0 94 10.1797 94 22.7369C93.9999 35.3142 83.7763 45.4937 71.1452 45.4937C65.4439 45.4937 60.2441 43.4156 56.2434 39.9982C68.9608 38.7231 73.2873 37.2095 78.0033 33.1853C82.726 29.1538 83.2331 23.2749 86.6071 17.7322C80.0192 15.6008 71.7947 16.6639 67.0412 18.4406C66.8081 18.5281 66.5997 18.6342 66.3904 18.7691C61.8797 21.66 56.1848 26.7728 56.1822 40.0046C56.1837 40.0044 56.1851 40.0041 56.1867 40.0039V57.1619H56.1738C56.045 52.2687 54.8192 47.7959 52.4965 43.7405C51.312 41.6747 49.9168 39.8226 48.3119 38.1834L48.3124 24.7324C48.3124 24.5713 48.3123 24.4302 48.3729 24.2692C48.3325 23.7646 48.3124 23.2607 48.3124 22.7369C48.3124 10.1798 58.5345 0.000171758 71.1452 0Z" fill="#A6D36F"/>
</svg>
